<mxfile host="app.diagrams.net" modified="2021-05-17T14:44:07.978Z" agent="5.0 (Macintosh; Intel Mac OS X 10_14_6) AppleWebKit/605.1.15 (KHTML, like Gecko) Version/12.1.2 Safari/605.1.15" etag="_J7KlY4j3k7x6B4ac7V6" version="14.6.13" type="github">
  <diagram id="C5RBs43oDa-KdzZeNtuy" name="Page-1">
    <mxGraphModel dx="756" dy="488" grid="1" gridSize="10" guides="1" tooltips="1" connect="1" arrows="1" fold="1" page="1" pageScale="1" pageWidth="827" pageHeight="1169" background="none" math="0" shadow="0">
      <root>
        <mxCell id="WIyWlLk6GJQsqaUBKTNV-0" />
        <mxCell id="WIyWlLk6GJQsqaUBKTNV-1" parent="WIyWlLk6GJQsqaUBKTNV-0" />
        <mxCell id="WIyWlLk6GJQsqaUBKTNV-2" value="" style="rounded=0;html=1;jettySize=auto;orthogonalLoop=1;fontSize=11;endArrow=block;endFill=0;endSize=8;strokeWidth=1;shadow=0;labelBackgroundColor=none;edgeStyle=orthogonalEdgeStyle;" parent="WIyWlLk6GJQsqaUBKTNV-1" source="WIyWlLk6GJQsqaUBKTNV-3" target="WIyWlLk6GJQsqaUBKTNV-6" edge="1">
          <mxGeometry relative="1" as="geometry" />
        </mxCell>
        <mxCell id="WIyWlLk6GJQsqaUBKTNV-3" value="старт" style="rounded=1;whiteSpace=wrap;html=1;fontSize=12;glass=0;strokeWidth=1;shadow=0;" parent="WIyWlLk6GJQsqaUBKTNV-1" vertex="1">
          <mxGeometry x="155" y="60" width="120" height="40" as="geometry" />
        </mxCell>
        <mxCell id="WIyWlLk6GJQsqaUBKTNV-4" value="" style="rounded=0;html=1;jettySize=auto;orthogonalLoop=1;fontSize=11;endArrow=block;endFill=0;endSize=8;strokeWidth=1;shadow=0;labelBackgroundColor=none;edgeStyle=orthogonalEdgeStyle;startArrow=none;" parent="WIyWlLk6GJQsqaUBKTNV-1" source="-xHk1IHz1QswQUi32ddZ-0" target="WIyWlLk6GJQsqaUBKTNV-10" edge="1">
          <mxGeometry y="20" relative="1" as="geometry">
            <mxPoint as="offset" />
          </mxGeometry>
        </mxCell>
        <mxCell id="WIyWlLk6GJQsqaUBKTNV-5" value="Нет" style="edgeStyle=orthogonalEdgeStyle;rounded=0;html=1;jettySize=auto;orthogonalLoop=1;fontSize=11;endArrow=block;endFill=0;endSize=8;strokeWidth=1;shadow=0;labelBackgroundColor=none;" parent="WIyWlLk6GJQsqaUBKTNV-1" source="WIyWlLk6GJQsqaUBKTNV-6" edge="1">
          <mxGeometry y="10" relative="1" as="geometry">
            <mxPoint as="offset" />
            <mxPoint x="354" y="190" as="targetPoint" />
          </mxGeometry>
        </mxCell>
        <mxCell id="-xHk1IHz1QswQUi32ddZ-2" value="" style="edgeStyle=orthogonalEdgeStyle;rounded=0;orthogonalLoop=1;jettySize=auto;html=1;" parent="WIyWlLk6GJQsqaUBKTNV-1" source="WIyWlLk6GJQsqaUBKTNV-6" target="-xHk1IHz1QswQUi32ddZ-0" edge="1">
          <mxGeometry relative="1" as="geometry" />
        </mxCell>
        <mxCell id="WIyWlLk6GJQsqaUBKTNV-6" value="&lt;br&gt;свободны ли выбранный IP и порт?&amp;nbsp;" style="rhombus;whiteSpace=wrap;html=1;shadow=0;fontFamily=Helvetica;fontSize=12;align=center;strokeWidth=1;spacing=6;spacingTop=-4;" parent="WIyWlLk6GJQsqaUBKTNV-1" vertex="1">
          <mxGeometry x="150" y="140" width="130" height="100" as="geometry" />
        </mxCell>
        <mxCell id="WIyWlLk6GJQsqaUBKTNV-8" value="Да" style="rounded=0;html=1;jettySize=auto;orthogonalLoop=1;fontSize=11;endArrow=block;endFill=0;endSize=8;strokeWidth=1;shadow=0;labelBackgroundColor=none;edgeStyle=orthogonalEdgeStyle;" parent="WIyWlLk6GJQsqaUBKTNV-1" source="WIyWlLk6GJQsqaUBKTNV-10" edge="1">
          <mxGeometry x="0.3333" y="20" relative="1" as="geometry">
            <mxPoint as="offset" />
            <mxPoint x="215" y="565" as="targetPoint" />
          </mxGeometry>
        </mxCell>
        <mxCell id="WIyWlLk6GJQsqaUBKTNV-10" value="Получено новое сообщение?" style="rhombus;whiteSpace=wrap;html=1;shadow=0;fontFamily=Helvetica;fontSize=12;align=center;strokeWidth=1;spacing=6;spacingTop=-4;" parent="WIyWlLk6GJQsqaUBKTNV-1" vertex="1">
          <mxGeometry x="137.5" y="420" width="155" height="90" as="geometry" />
        </mxCell>
        <mxCell id="-xHk1IHz1QswQUi32ddZ-0" value="слушаем на выбранном IP и порту (по умолчанию TCP:0.0.0.0:4000), запускаем &amp;nbsp;GO рутину обработки входящих сообшений,&amp;nbsp;" style="rounded=1;whiteSpace=wrap;html=1;" parent="WIyWlLk6GJQsqaUBKTNV-1" vertex="1">
          <mxGeometry x="130" y="285" width="170" height="90" as="geometry" />
        </mxCell>
        <mxCell id="-xHk1IHz1QswQUi32ddZ-3" value="Да" style="rounded=0;html=1;jettySize=auto;orthogonalLoop=1;fontSize=11;endArrow=none;endFill=0;endSize=8;strokeWidth=1;shadow=0;labelBackgroundColor=none;edgeStyle=orthogonalEdgeStyle;" parent="WIyWlLk6GJQsqaUBKTNV-1" source="WIyWlLk6GJQsqaUBKTNV-6" target="-xHk1IHz1QswQUi32ddZ-0" edge="1">
          <mxGeometry y="20" relative="1" as="geometry">
            <mxPoint as="offset" />
            <mxPoint x="215" y="240" as="sourcePoint" />
            <mxPoint x="220" y="380" as="targetPoint" />
          </mxGeometry>
        </mxCell>
        <mxCell id="-xHk1IHz1QswQUi32ddZ-4" value="&lt;span&gt;Завершаем программу: Ошибка порты заняты&lt;/span&gt;" style="shape=parallelogram;perimeter=parallelogramPerimeter;whiteSpace=wrap;html=1;fixedSize=1;" parent="WIyWlLk6GJQsqaUBKTNV-1" vertex="1">
          <mxGeometry x="350" y="150" width="180" height="80" as="geometry" />
        </mxCell>
        <mxCell id="-xHk1IHz1QswQUi32ddZ-8" value="да" style="edgeStyle=orthogonalEdgeStyle;rounded=0;orthogonalLoop=1;jettySize=auto;html=1;" parent="WIyWlLk6GJQsqaUBKTNV-1" source="-xHk1IHz1QswQUi32ddZ-6" target="-xHk1IHz1QswQUi32ddZ-7" edge="1">
          <mxGeometry relative="1" as="geometry" />
        </mxCell>
        <mxCell id="-xHk1IHz1QswQUi32ddZ-10" value="" style="edgeStyle=orthogonalEdgeStyle;rounded=0;orthogonalLoop=1;jettySize=auto;html=1;" parent="WIyWlLk6GJQsqaUBKTNV-1" source="-xHk1IHz1QswQUi32ddZ-6" target="-xHk1IHz1QswQUi32ddZ-9" edge="1">
          <mxGeometry relative="1" as="geometry" />
        </mxCell>
        <mxCell id="-xHk1IHz1QswQUi32ddZ-11" value="нет" style="edgeLabel;html=1;align=center;verticalAlign=middle;resizable=0;points=[];" parent="-xHk1IHz1QswQUi32ddZ-10" vertex="1" connectable="0">
          <mxGeometry x="-0.075" relative="1" as="geometry">
            <mxPoint as="offset" />
          </mxGeometry>
        </mxCell>
        <mxCell id="-xHk1IHz1QswQUi32ddZ-6" value="Формат XML?" style="rhombus;whiteSpace=wrap;html=1;" parent="WIyWlLk6GJQsqaUBKTNV-1" vertex="1">
          <mxGeometry x="175" y="570" width="80" height="80" as="geometry" />
        </mxCell>
        <mxCell id="-xHk1IHz1QswQUi32ddZ-17" value="" style="edgeStyle=orthogonalEdgeStyle;rounded=0;orthogonalLoop=1;jettySize=auto;html=1;entryX=0.5;entryY=0;entryDx=0;entryDy=0;" parent="WIyWlLk6GJQsqaUBKTNV-1" source="-xHk1IHz1QswQUi32ddZ-7" target="-xHk1IHz1QswQUi32ddZ-18" edge="1">
          <mxGeometry relative="1" as="geometry">
            <mxPoint x="520" y="680" as="targetPoint" />
            <Array as="points">
              <mxPoint x="615" y="610" />
            </Array>
          </mxGeometry>
        </mxCell>
        <mxCell id="-xHk1IHz1QswQUi32ddZ-7" value="парсим &amp;nbsp;XML" style="whiteSpace=wrap;html=1;" parent="WIyWlLk6GJQsqaUBKTNV-1" vertex="1">
          <mxGeometry x="315" y="580" width="120" height="60" as="geometry" />
        </mxCell>
        <mxCell id="-xHk1IHz1QswQUi32ddZ-14" value="" style="edgeStyle=orthogonalEdgeStyle;rounded=0;orthogonalLoop=1;jettySize=auto;html=1;entryX=0;entryY=0.5;entryDx=0;entryDy=0;" parent="WIyWlLk6GJQsqaUBKTNV-1" source="-xHk1IHz1QswQUi32ddZ-9" target="-xHk1IHz1QswQUi32ddZ-23" edge="1">
          <mxGeometry relative="1" as="geometry">
            <mxPoint x="273" y="720" as="targetPoint" />
            <Array as="points">
              <mxPoint x="275" y="760" />
              <mxPoint x="275" y="710" />
            </Array>
          </mxGeometry>
        </mxCell>
        <mxCell id="-xHk1IHz1QswQUi32ddZ-33" value="нет" style="edgeLabel;html=1;align=center;verticalAlign=middle;resizable=0;points=[];" parent="-xHk1IHz1QswQUi32ddZ-14" vertex="1" connectable="0">
          <mxGeometry x="-0.2892" y="2" relative="1" as="geometry">
            <mxPoint x="1" y="-12" as="offset" />
          </mxGeometry>
        </mxCell>
        <mxCell id="-xHk1IHz1QswQUi32ddZ-34" value="" style="edgeStyle=orthogonalEdgeStyle;rounded=0;orthogonalLoop=1;jettySize=auto;html=1;entryX=0;entryY=0.5;entryDx=0;entryDy=0;" parent="WIyWlLk6GJQsqaUBKTNV-1" source="-xHk1IHz1QswQUi32ddZ-9" target="-xHk1IHz1QswQUi32ddZ-13" edge="1">
          <mxGeometry relative="1" as="geometry">
            <Array as="points">
              <mxPoint x="300" y="800" />
              <mxPoint x="300" y="800" />
            </Array>
          </mxGeometry>
        </mxCell>
        <mxCell id="-xHk1IHz1QswQUi32ddZ-35" value="да" style="edgeLabel;html=1;align=center;verticalAlign=middle;resizable=0;points=[];" parent="-xHk1IHz1QswQUi32ddZ-34" vertex="1" connectable="0">
          <mxGeometry x="-0.1027" y="-3" relative="1" as="geometry">
            <mxPoint as="offset" />
          </mxGeometry>
        </mxCell>
        <mxCell id="-xHk1IHz1QswQUi32ddZ-9" value="Формат ТЕКСТ?" style="rhombus;whiteSpace=wrap;html=1;" parent="WIyWlLk6GJQsqaUBKTNV-1" vertex="1">
          <mxGeometry x="175" y="720" width="80" height="80" as="geometry" />
        </mxCell>
        <mxCell id="-xHk1IHz1QswQUi32ddZ-12" style="edgeStyle=orthogonalEdgeStyle;rounded=0;orthogonalLoop=1;jettySize=auto;html=1;exitX=0.5;exitY=1;exitDx=0;exitDy=0;" parent="WIyWlLk6GJQsqaUBKTNV-1" source="-xHk1IHz1QswQUi32ddZ-9" target="-xHk1IHz1QswQUi32ddZ-9" edge="1">
          <mxGeometry relative="1" as="geometry" />
        </mxCell>
        <mxCell id="-xHk1IHz1QswQUi32ddZ-19" value="" style="edgeStyle=orthogonalEdgeStyle;rounded=0;orthogonalLoop=1;jettySize=auto;html=1;entryX=0.5;entryY=1;entryDx=0;entryDy=0;" parent="WIyWlLk6GJQsqaUBKTNV-1" source="-xHk1IHz1QswQUi32ddZ-13" target="-xHk1IHz1QswQUi32ddZ-18" edge="1">
          <mxGeometry relative="1" as="geometry" />
        </mxCell>
        <mxCell id="-xHk1IHz1QswQUi32ddZ-13" value="парсим текст" style="whiteSpace=wrap;html=1;" parent="WIyWlLk6GJQsqaUBKTNV-1" vertex="1">
          <mxGeometry x="315" y="770" width="120" height="60" as="geometry" />
        </mxCell>
        <mxCell id="-xHk1IHz1QswQUi32ddZ-24" value="нет" style="edgeStyle=orthogonalEdgeStyle;rounded=0;orthogonalLoop=1;jettySize=auto;html=1;" parent="WIyWlLk6GJQsqaUBKTNV-1" source="-xHk1IHz1QswQUi32ddZ-18" target="-xHk1IHz1QswQUi32ddZ-23" edge="1">
          <mxGeometry relative="1" as="geometry" />
        </mxCell>
        <mxCell id="-xHk1IHz1QswQUi32ddZ-38" value="" style="edgeStyle=orthogonalEdgeStyle;rounded=0;orthogonalLoop=1;jettySize=auto;html=1;" parent="WIyWlLk6GJQsqaUBKTNV-1" source="-xHk1IHz1QswQUi32ddZ-18" edge="1">
          <mxGeometry relative="1" as="geometry">
            <mxPoint x="830" y="900" as="targetPoint" />
          </mxGeometry>
        </mxCell>
        <mxCell id="-xHk1IHz1QswQUi32ddZ-18" value="&lt;p style=&quot;line-height: 100%&quot;&gt;Есть ли среди полученных данных информация RFID ID и время Unix(Millis)?&lt;/p&gt;" style="rhombus;whiteSpace=wrap;html=1;perimeterSpacing=0;" parent="WIyWlLk6GJQsqaUBKTNV-1" vertex="1">
          <mxGeometry x="490" y="640" width="250" height="140" as="geometry" />
        </mxCell>
        <mxCell id="-xHk1IHz1QswQUi32ddZ-23" value="пропускаем сообщение" style="whiteSpace=wrap;html=1;" parent="WIyWlLk6GJQsqaUBKTNV-1" vertex="1">
          <mxGeometry x="310" y="680" width="120" height="60" as="geometry" />
        </mxCell>
        <mxCell id="-xHk1IHz1QswQUi32ddZ-28" value="" style="edgeStyle=orthogonalEdgeStyle;rounded=0;orthogonalLoop=1;jettySize=auto;html=1;" parent="WIyWlLk6GJQsqaUBKTNV-1" source="-xHk1IHz1QswQUi32ddZ-25" target="-xHk1IHz1QswQUi32ddZ-27" edge="1">
          <mxGeometry relative="1" as="geometry" />
        </mxCell>
        <mxCell id="-xHk1IHz1QswQUi32ddZ-29" value="нет" style="edgeLabel;html=1;align=center;verticalAlign=middle;resizable=0;points=[];" parent="-xHk1IHz1QswQUi32ddZ-28" vertex="1" connectable="0">
          <mxGeometry x="0.0105" y="4" relative="1" as="geometry">
            <mxPoint as="offset" />
          </mxGeometry>
        </mxCell>
        <mxCell id="-xHk1IHz1QswQUi32ddZ-42" value="" style="edgeStyle=orthogonalEdgeStyle;rounded=0;orthogonalLoop=1;jettySize=auto;html=1;" parent="WIyWlLk6GJQsqaUBKTNV-1" source="-xHk1IHz1QswQUi32ddZ-25" target="-xHk1IHz1QswQUi32ddZ-41" edge="1">
          <mxGeometry relative="1" as="geometry" />
        </mxCell>
        <mxCell id="-xHk1IHz1QswQUi32ddZ-25" value="существует ли массив c ID=RFID?" style="rhombus;whiteSpace=wrap;html=1;" parent="WIyWlLk6GJQsqaUBKTNV-1" vertex="1">
          <mxGeometry x="750" y="905" width="160" height="90" as="geometry" />
        </mxCell>
        <mxCell id="-xHk1IHz1QswQUi32ddZ-31" value="" style="edgeStyle=orthogonalEdgeStyle;rounded=0;orthogonalLoop=1;jettySize=auto;html=1;entryX=0;entryY=0.5;entryDx=0;entryDy=0;" parent="WIyWlLk6GJQsqaUBKTNV-1" source="-xHk1IHz1QswQUi32ddZ-27" target="WIyWlLk6GJQsqaUBKTNV-10" edge="1">
          <mxGeometry relative="1" as="geometry">
            <mxPoint x="150" y="640" as="targetPoint" />
            <Array as="points">
              <mxPoint x="118" y="940" />
              <mxPoint x="118" y="465" />
            </Array>
          </mxGeometry>
        </mxCell>
        <mxCell id="-xHk1IHz1QswQUi32ddZ-27" value="создаем массив &amp;nbsp;с ID=RFID, создаем первые элементы массива: time = (unix.milli), &amp;nbsp;заезд = 1, круг = 0, антенна=номер антенны (если есть)" style="whiteSpace=wrap;html=1;" parent="WIyWlLk6GJQsqaUBKTNV-1" vertex="1">
          <mxGeometry x="175" y="900" width="230" height="100" as="geometry" />
        </mxCell>
        <mxCell id="-xHk1IHz1QswQUi32ddZ-44" value="" style="edgeStyle=orthogonalEdgeStyle;rounded=0;orthogonalLoop=1;jettySize=auto;html=1;" parent="WIyWlLk6GJQsqaUBKTNV-1" source="-xHk1IHz1QswQUi32ddZ-41" target="-xHk1IHz1QswQUi32ddZ-43" edge="1">
          <mxGeometry relative="1" as="geometry" />
        </mxCell>
        <mxCell id="-xHk1IHz1QswQUi32ddZ-41" value="запрашиваем элементы массива, сортируем и берем последний элемент по времени" style="whiteSpace=wrap;html=1;" parent="WIyWlLk6GJQsqaUBKTNV-1" vertex="1">
          <mxGeometry x="770" y="1040" width="120" height="110" as="geometry" />
        </mxCell>
        <mxCell id="-xHk1IHz1QswQUi32ddZ-43" value="запрошенное крайнее время больше текущего на дельту круга минимальное?" style="rhombus;whiteSpace=wrap;html=1;" parent="WIyWlLk6GJQsqaUBKTNV-1" vertex="1">
          <mxGeometry x="725" y="1260" width="210" height="175" as="geometry" />
        </mxCell>
        <mxCell id="-xHk1IHz1QswQUi32ddZ-45" value="Дельта круга минимальная = 15с; &amp;nbsp;&lt;br&gt;Дельта круга максимальная = времени присвоенного класса (по умолчанию 5 минут=300с)&lt;br&gt;&amp;nbsp;" style="text;html=1;align=left;verticalAlign=middle;resizable=0;points=[];autosize=1;strokeColor=none;" parent="WIyWlLk6GJQsqaUBKTNV-1" vertex="1">
          <mxGeometry x="460" y="15" width="530" height="50" as="geometry" />
        </mxCell>
        <mxCell id="-xHk1IHz1QswQUi32ddZ-46" value="&lt;br&gt;" style="text;html=1;align=center;verticalAlign=middle;resizable=0;points=[];autosize=1;strokeColor=none;" parent="WIyWlLk6GJQsqaUBKTNV-1" vertex="1">
          <mxGeometry x="540" y="50" width="20" height="20" as="geometry" />
        </mxCell>
      </root>
    </mxGraphModel>
  </diagram>
</mxfile>
